<?xml version="1.0" encoding="UTF-8" standalone="no" ?>
<!DOCTYPE svg PUBLIC "-//W3C//DTD SVG 1.1//EN" "http://www.w3.org/Graphics/SVG/1.1/DTD/svg11.dtd">
<svg xmlns="http://www.w3.org/2000/svg" xmlns:xlink="http://www.w3.org/1999/xlink" version="1.1" width="500" height="500" viewBox="0 0 500 500" xml:space="preserve">
<desc>Created with Fabric.js 5.3.0</desc>
<defs>
</defs>
<g transform="matrix(0.673306478 0 0 1.1063265306 249.9999977497 214.4698268237)" id="HWokBy11oSJ00bnn8f0pk"  >
<path style="stroke: rgb(239,91,36); stroke-width: 1; stroke-dasharray: none; stroke-linecap: butt; stroke-dashoffset: 0; stroke-linejoin: miter; stroke-miterlimit: 4; fill: rgb(239,91,36); fill-rule: nonzero; opacity: 1;" vector-effect="non-scaling-stroke"  transform=" translate(0, 0)" d="M -97.57559 -42.24138 L -97.57559 42.24138 C -97.57559 42.24138 -95.85145 42.24138 14.493379999999988 42.24138 C 124.83820999999999 42.24138 125.70027999999999 -42.24138 14.493379999999988 -42.24138 C -96.71352000000002 -42.24138 -97.57559 -42.24138 -97.57559 -42.24138 z" stroke-linecap="round" />
</g>
<g transform="matrix(0.673306478 0 0 1.1063265306 250 285.5301724138)" id="ZcFvTKmSUA6IGiIIeCBvB"  >
<path style="stroke: rgb(0,123,255); stroke-width: 1; stroke-dasharray: none; stroke-linecap: butt; stroke-dashoffset: 0; stroke-linejoin: miter; stroke-miterlimit: 4; fill: rgb(0,123,255); fill-rule: nonzero; opacity: 1;" vector-effect="non-scaling-stroke"  transform=" translate(-0.0000016095, 0)" d="M -97.57559 -42.24138 L -97.57559 42.24138 C -97.57559 42.24138 -95.85145 42.24138 14.493379999999988 42.24138 C 124.83820999999999 42.24138 125.70027999999999 -42.24138 14.493379999999988 -42.24138 C -96.71352000000002 -42.24138 -97.57559 -42.24138 -97.57559 -42.24138 z" stroke-linecap="round" />
</g>
</svg>